<svg width="145" height="36" viewBox="0 0 145 36" fill="none" xmlns="http://www.w3.org/2000/svg">
<path d="M17.72 35.624C15.224 35.624 12.904 35.176 10.76 34.28C8.64795 33.384 6.79195 32.136 5.19195 30.536C3.62395 28.936 2.39195 27.096 1.49595 25.016C0.631951 22.904 0.199951 20.648 0.199951 18.248C0.199951 15.848 0.631951 13.592 1.49595 11.48C2.39195 9.368 3.62395 7.512 5.19195 5.912C6.79195 4.312 8.64795 3.064 10.76 2.168C12.904 1.24 15.224 0.776001 17.72 0.776001C20.568 0.776001 22.984 1.24 24.968 2.168C26.984 3.064 28.68 4.36 30.056 6.056L25.256 10.184C24.36 9.192 23.272 8.424 21.992 7.88C20.712 7.304 19.288 7.016 17.72 7.016C15.576 7.016 13.704 7.528 12.104 8.552C10.536 9.576 9.31995 10.936 8.45595 12.632C7.59195 14.328 7.15995 16.2 7.15995 18.248C7.15995 20.296 7.59195 22.168 8.45595 23.864C9.31995 25.56 10.536 26.92 12.104 27.944C13.704 28.968 15.576 29.48 17.72 29.48C20.376 29.48 22.52 28.856 24.152 27.608C25.784 26.328 26.792 24.376 27.176 21.752L16.136 21.848V15.8H33.656C33.72 16.312 33.768 16.936 33.8 17.672C33.864 18.376 33.896 19 33.896 19.544C33.896 22.648 33.24 25.416 31.928 27.848C30.648 30.248 28.792 32.152 26.36 33.56C23.96 34.936 21.08 35.624 17.72 35.624Z" fill="#2C5530"/>
<path d="M37.4937 35V1.4H48.3417C52.1177 1.4 55.0777 2.28 57.2217 4.04C59.3977 5.768 60.4857 8.28 60.4857 11.576C60.4857 14.232 59.7657 16.376 58.3257 18.008C56.9177 19.64 54.9497 20.728 52.4217 21.272L61.8297 35H53.9097L46.7577 24.344C46.3097 23.672 45.8777 22.856 45.4617 21.896H44.2137V35H37.4937ZM44.2137 15.848H47.9577C49.7817 15.848 51.1897 15.496 52.1817 14.792C53.1737 14.056 53.6697 13 53.6697 11.624C53.6697 10.28 53.1737 9.256 52.1817 8.552C51.1897 7.816 49.7817 7.448 47.9577 7.448H44.2137V15.848Z" fill="#2C5530"/>
<path d="M62.1661 35L75.8941 1.4H81.7021L95.3821 35H88.0861L85.7821 28.616H71.7661L69.4621 35H62.1661ZM77.5741 13.64L73.9741 22.808H83.5741L79.9741 13.64C79.4941 12.36 79.0941 11.08 78.7741 9.8C78.4541 11.176 78.0541 12.456 77.5741 13.64Z" fill="#2C5530"/>
<path d="M96.8843 35V1.4H116.612V7.448H103.604V15.32H116.372V21.272H103.604V35H96.8843Z" fill="#2C5530"/>
<path d="M128.148 35V7.448H118.548V1.4H144.468V7.448H134.868V35H128.148Z" fill="#2C5530"/>
</svg>
